<mxfile host="app.diagrams.net" agent="Mozilla/5.0 (Windows NT 10.0; Win64; x64) AppleWebKit/537.36 (KHTML, like Gecko) Chrome/132.0.0.0 YaBrowser/25.2.0.0 Safari/537.36" version="26.1.0">
  <diagram name="Страница — 1" id="Ip_bh43ZWq2_4byvocxV">
    <mxGraphModel dx="395" dy="542" grid="1" gridSize="10" guides="1" tooltips="1" connect="1" arrows="1" fold="1" page="1" pageScale="1" pageWidth="827" pageHeight="1169" math="0" shadow="0">
      <root>
        <mxCell id="0" />
        <mxCell id="1" parent="0" />
        <mxCell id="YIptKxTYCtXxLm6eZtxN-1" value="&lt;p data-pm-slice=&quot;1 1 [&amp;quot;ordered_list&amp;quot;,{&amp;quot;spread&amp;quot;:false,&amp;quot;startingNumber&amp;quot;:1,&amp;quot;start&amp;quot;:686,&amp;quot;end&amp;quot;:1026},&amp;quot;regular_list_item&amp;quot;,{&amp;quot;start&amp;quot;:686,&amp;quot;end&amp;quot;:805}]&quot;&gt;&lt;strong&gt;Клиент&lt;/strong&gt;&lt;/p&gt;" style="rounded=0;whiteSpace=wrap;html=1;" vertex="1" parent="1">
          <mxGeometry x="90" y="190" width="120" height="30" as="geometry" />
        </mxCell>
        <mxCell id="YIptKxTYCtXxLm6eZtxN-2" value="&lt;p data-pm-slice=&quot;1 1 [&amp;quot;ordered_list&amp;quot;,{&amp;quot;spread&amp;quot;:false,&amp;quot;startingNumber&amp;quot;:1,&amp;quot;start&amp;quot;:686,&amp;quot;end&amp;quot;:1026},&amp;quot;regular_list_item&amp;quot;,{&amp;quot;start&amp;quot;:686,&amp;quot;end&amp;quot;:805}]&quot;&gt;&lt;strong&gt;Администратор&lt;/strong&gt;&lt;/p&gt;" style="rounded=0;whiteSpace=wrap;html=1;" vertex="1" parent="1">
          <mxGeometry x="280" y="190" width="120" height="30" as="geometry" />
        </mxCell>
        <mxCell id="YIptKxTYCtXxLm6eZtxN-3" value="&lt;p data-pm-slice=&quot;1 1 [&amp;quot;ordered_list&amp;quot;,{&amp;quot;spread&amp;quot;:false,&amp;quot;startingNumber&amp;quot;:1,&amp;quot;start&amp;quot;:686,&amp;quot;end&amp;quot;:1026},&amp;quot;regular_list_item&amp;quot;,{&amp;quot;start&amp;quot;:686,&amp;quot;end&amp;quot;:805}]&quot;&gt;&lt;strong&gt;Система&lt;/strong&gt;&lt;/p&gt;" style="rounded=0;whiteSpace=wrap;html=1;" vertex="1" parent="1">
          <mxGeometry x="470" y="190" width="120" height="30" as="geometry" />
        </mxCell>
        <mxCell id="YIptKxTYCtXxLm6eZtxN-4" value="" style="endArrow=none;html=1;rounded=0;entryX=0.5;entryY=1;entryDx=0;entryDy=0;" edge="1" parent="1" target="YIptKxTYCtXxLm6eZtxN-2">
          <mxGeometry width="50" height="50" relative="1" as="geometry">
            <mxPoint x="340" y="620" as="sourcePoint" />
            <mxPoint x="450" y="400" as="targetPoint" />
          </mxGeometry>
        </mxCell>
        <mxCell id="YIptKxTYCtXxLm6eZtxN-5" value="" style="endArrow=classicThin;html=1;strokeWidth=2;rounded=0;endFill=1;entryX=0;entryY=0;entryDx=0;entryDy=0;" edge="1" parent="1" target="YIptKxTYCtXxLm6eZtxN-29">
          <mxGeometry width="50" height="50" relative="1" as="geometry">
            <mxPoint x="150" y="280" as="sourcePoint" />
            <mxPoint x="340" y="280" as="targetPoint" />
          </mxGeometry>
        </mxCell>
        <mxCell id="YIptKxTYCtXxLm6eZtxN-9" value="&lt;p data-pm-slice=&quot;1 1 [&amp;quot;ordered_list&amp;quot;,{&amp;quot;spread&amp;quot;:true,&amp;quot;startingNumber&amp;quot;:1,&amp;quot;start&amp;quot;:687,&amp;quot;end&amp;quot;:1342},&amp;quot;regular_list_item&amp;quot;,{&amp;quot;start&amp;quot;:687,&amp;quot;end&amp;quot;:930},&amp;quot;list&amp;quot;,{&amp;quot;spread&amp;quot;:false,&amp;quot;start&amp;quot;:716,&amp;quot;end&amp;quot;:930},&amp;quot;regular_list_item&amp;quot;,{&amp;quot;start&amp;quot;:716,&amp;quot;end&amp;quot;:770}]&quot;&gt;отправляет запрос&amp;nbsp;&lt;span style=&quot;background-color: transparent; color: light-dark(rgb(0, 0, 0), rgb(255, 255, 255));&quot;&gt;на запись.&lt;/span&gt;&lt;/p&gt;" style="edgeLabel;html=1;align=center;verticalAlign=middle;resizable=0;points=[];fontSize=10;labelBackgroundColor=none;spacing=0;" vertex="1" connectable="0" parent="YIptKxTYCtXxLm6eZtxN-5">
          <mxGeometry x="-0.1537" y="-2" relative="1" as="geometry">
            <mxPoint x="9" y="-22" as="offset" />
          </mxGeometry>
        </mxCell>
        <mxCell id="YIptKxTYCtXxLm6eZtxN-6" value="" style="endArrow=none;html=1;rounded=0;entryX=0.5;entryY=1;entryDx=0;entryDy=0;" edge="1" parent="1">
          <mxGeometry width="50" height="50" relative="1" as="geometry">
            <mxPoint x="149.91" y="620" as="sourcePoint" />
            <mxPoint x="149.41" y="220" as="targetPoint" />
          </mxGeometry>
        </mxCell>
        <mxCell id="YIptKxTYCtXxLm6eZtxN-7" value="" style="endArrow=none;html=1;rounded=0;entryX=0.5;entryY=1;entryDx=0;entryDy=0;" edge="1" parent="1">
          <mxGeometry width="50" height="50" relative="1" as="geometry">
            <mxPoint x="530" y="620" as="sourcePoint" />
            <mxPoint x="529.5" y="220" as="targetPoint" />
          </mxGeometry>
        </mxCell>
        <mxCell id="YIptKxTYCtXxLm6eZtxN-10" value="" style="endArrow=classicThin;html=1;strokeWidth=2;rounded=0;endFill=1;entryX=0;entryY=0;entryDx=0;entryDy=0;" edge="1" parent="1" target="YIptKxTYCtXxLm6eZtxN-31">
          <mxGeometry width="50" height="50" relative="1" as="geometry">
            <mxPoint x="340" y="320" as="sourcePoint" />
            <mxPoint x="530" y="320" as="targetPoint" />
          </mxGeometry>
        </mxCell>
        <mxCell id="YIptKxTYCtXxLm6eZtxN-11" value="&lt;p data-pm-slice=&quot;1 1 [&amp;quot;ordered_list&amp;quot;,{&amp;quot;spread&amp;quot;:true,&amp;quot;startingNumber&amp;quot;:1,&amp;quot;start&amp;quot;:687,&amp;quot;end&amp;quot;:1342},&amp;quot;regular_list_item&amp;quot;,{&amp;quot;start&amp;quot;:687,&amp;quot;end&amp;quot;:930},&amp;quot;list&amp;quot;,{&amp;quot;spread&amp;quot;:false,&amp;quot;start&amp;quot;:716,&amp;quot;end&amp;quot;:930},&amp;quot;regular_list_item&amp;quot;,{&amp;quot;start&amp;quot;:774,&amp;quot;end&amp;quot;:829}]&quot;&gt;вносит запись в базу данных.&lt;/p&gt;" style="edgeLabel;html=1;align=center;verticalAlign=middle;resizable=0;points=[];fontSize=10;labelBackgroundColor=none;spacing=0;" vertex="1" connectable="0" parent="YIptKxTYCtXxLm6eZtxN-10">
          <mxGeometry x="-0.1537" y="-2" relative="1" as="geometry">
            <mxPoint x="9" y="-22" as="offset" />
          </mxGeometry>
        </mxCell>
        <mxCell id="YIptKxTYCtXxLm6eZtxN-12" value="" style="endArrow=classicThin;dashed=1;html=1;dashPattern=8 8;strokeWidth=2;rounded=0;endFill=1;entryX=0.967;entryY=0.662;entryDx=0;entryDy=0;entryPerimeter=0;" edge="1" parent="1" target="YIptKxTYCtXxLm6eZtxN-29">
          <mxGeometry width="50" height="50" relative="1" as="geometry">
            <mxPoint x="530" y="360" as="sourcePoint" />
            <mxPoint x="340" y="360" as="targetPoint" />
          </mxGeometry>
        </mxCell>
        <mxCell id="YIptKxTYCtXxLm6eZtxN-13" value="&lt;p data-pm-slice=&quot;1 1 [&amp;quot;ordered_list&amp;quot;,{&amp;quot;spread&amp;quot;:true,&amp;quot;startingNumber&amp;quot;:1,&amp;quot;start&amp;quot;:687,&amp;quot;end&amp;quot;:1342},&amp;quot;regular_list_item&amp;quot;,{&amp;quot;start&amp;quot;:687,&amp;quot;end&amp;quot;:930},&amp;quot;list&amp;quot;,{&amp;quot;spread&amp;quot;:false,&amp;quot;start&amp;quot;:716,&amp;quot;end&amp;quot;:930},&amp;quot;regular_list_item&amp;quot;,{&amp;quot;start&amp;quot;:833,&amp;quot;end&amp;quot;:880}]&quot;&gt;подтверждает запись.&lt;/p&gt;" style="edgeLabel;html=1;align=center;verticalAlign=middle;resizable=0;points=[];fontSize=10;labelBackgroundColor=none;spacing=0;" vertex="1" connectable="0" parent="YIptKxTYCtXxLm6eZtxN-12">
          <mxGeometry x="-0.1537" y="-2" relative="1" as="geometry">
            <mxPoint x="-20" y="-18" as="offset" />
          </mxGeometry>
        </mxCell>
        <mxCell id="YIptKxTYCtXxLm6eZtxN-14" value="" style="endArrow=classicThin;dashed=1;html=1;dashPattern=8 8;strokeWidth=2;rounded=0;endFill=1;" edge="1" parent="1">
          <mxGeometry width="50" height="50" relative="1" as="geometry">
            <mxPoint x="340" y="400" as="sourcePoint" />
            <mxPoint x="150" y="400" as="targetPoint" />
          </mxGeometry>
        </mxCell>
        <mxCell id="YIptKxTYCtXxLm6eZtxN-15" value="&lt;span style=&quot;background-color: transparent; color: light-dark(rgb(0, 0, 0), rgb(255, 255, 255));&quot;&gt;уведомляет о записи.&lt;/span&gt;" style="edgeLabel;html=1;align=center;verticalAlign=middle;resizable=0;points=[];fontSize=10;labelBackgroundColor=none;spacing=0;" vertex="1" connectable="0" parent="YIptKxTYCtXxLm6eZtxN-14">
          <mxGeometry x="-0.1537" y="-2" relative="1" as="geometry">
            <mxPoint x="-20" y="-18" as="offset" />
          </mxGeometry>
        </mxCell>
        <mxCell id="YIptKxTYCtXxLm6eZtxN-18" value="" style="endArrow=classicThin;html=1;strokeWidth=2;rounded=0;endFill=1;entryX=0;entryY=0;entryDx=0;entryDy=0;" edge="1" parent="1" target="YIptKxTYCtXxLm6eZtxN-33">
          <mxGeometry width="50" height="50" relative="1" as="geometry">
            <mxPoint x="150" y="440" as="sourcePoint" />
            <mxPoint x="340" y="440" as="targetPoint" />
          </mxGeometry>
        </mxCell>
        <mxCell id="YIptKxTYCtXxLm6eZtxN-19" value="&lt;p data-pm-slice=&quot;1 1 [&amp;quot;ordered_list&amp;quot;,{&amp;quot;spread&amp;quot;:true,&amp;quot;startingNumber&amp;quot;:1,&amp;quot;start&amp;quot;:687,&amp;quot;end&amp;quot;:1342},&amp;quot;regular_list_item&amp;quot;,{&amp;quot;start&amp;quot;:1112,&amp;quot;end&amp;quot;:1342},&amp;quot;list&amp;quot;,{&amp;quot;spread&amp;quot;:false,&amp;quot;start&amp;quot;:1137,&amp;quot;end&amp;quot;:1342},&amp;quot;regular_list_item&amp;quot;,{&amp;quot;start&amp;quot;:1137,&amp;quot;end&amp;quot;:1181}]&quot;&gt;оплачивает услугу.&lt;/p&gt;" style="edgeLabel;html=1;align=center;verticalAlign=middle;resizable=0;points=[];fontSize=10;labelBackgroundColor=none;spacing=0;" vertex="1" connectable="0" parent="YIptKxTYCtXxLm6eZtxN-18">
          <mxGeometry x="-0.1537" y="-2" relative="1" as="geometry">
            <mxPoint x="9" y="-22" as="offset" />
          </mxGeometry>
        </mxCell>
        <mxCell id="YIptKxTYCtXxLm6eZtxN-23" value="" style="endArrow=classicThin;html=1;strokeWidth=2;rounded=0;endFill=1;entryX=0;entryY=0;entryDx=0;entryDy=0;" edge="1" parent="1" target="YIptKxTYCtXxLm6eZtxN-32">
          <mxGeometry width="50" height="50" relative="1" as="geometry">
            <mxPoint x="340" y="480" as="sourcePoint" />
            <mxPoint x="530" y="480" as="targetPoint" />
          </mxGeometry>
        </mxCell>
        <mxCell id="YIptKxTYCtXxLm6eZtxN-24" value="&lt;p data-pm-slice=&quot;1 1 [&amp;quot;ordered_list&amp;quot;,{&amp;quot;spread&amp;quot;:true,&amp;quot;startingNumber&amp;quot;:1,&amp;quot;start&amp;quot;:687,&amp;quot;end&amp;quot;:1342},&amp;quot;regular_list_item&amp;quot;,{&amp;quot;start&amp;quot;:1112,&amp;quot;end&amp;quot;:1342},&amp;quot;list&amp;quot;,{&amp;quot;spread&amp;quot;:false,&amp;quot;start&amp;quot;:1137,&amp;quot;end&amp;quot;:1342},&amp;quot;regular_list_item&amp;quot;,{&amp;quot;start&amp;quot;:1185,&amp;quot;end&amp;quot;:1244}]&quot;&gt;отправляет информацию об оплате.&lt;/p&gt;" style="edgeLabel;html=1;align=center;verticalAlign=middle;resizable=0;points=[];fontSize=10;labelBackgroundColor=none;spacing=0;" vertex="1" connectable="0" parent="YIptKxTYCtXxLm6eZtxN-23">
          <mxGeometry x="-0.1537" y="-2" relative="1" as="geometry">
            <mxPoint x="22" y="-22" as="offset" />
          </mxGeometry>
        </mxCell>
        <mxCell id="YIptKxTYCtXxLm6eZtxN-25" value="" style="endArrow=classicThin;dashed=1;html=1;dashPattern=8 8;strokeWidth=2;rounded=0;endFill=1;entryX=1.151;entryY=0.67;entryDx=0;entryDy=0;entryPerimeter=0;" edge="1" parent="1" target="YIptKxTYCtXxLm6eZtxN-33">
          <mxGeometry width="50" height="50" relative="1" as="geometry">
            <mxPoint x="530" y="520" as="sourcePoint" />
            <mxPoint x="340" y="520" as="targetPoint" />
          </mxGeometry>
        </mxCell>
        <mxCell id="YIptKxTYCtXxLm6eZtxN-26" value="&lt;p data-pm-slice=&quot;1 1 [&amp;quot;ordered_list&amp;quot;,{&amp;quot;spread&amp;quot;:true,&amp;quot;startingNumber&amp;quot;:1,&amp;quot;start&amp;quot;:687,&amp;quot;end&amp;quot;:1342},&amp;quot;regular_list_item&amp;quot;,{&amp;quot;start&amp;quot;:1112,&amp;quot;end&amp;quot;:1342},&amp;quot;list&amp;quot;,{&amp;quot;spread&amp;quot;:false,&amp;quot;start&amp;quot;:1137,&amp;quot;end&amp;quot;:1342},&amp;quot;regular_list_item&amp;quot;,{&amp;quot;start&amp;quot;:1248,&amp;quot;end&amp;quot;:1295}]&quot;&gt;рассчитывает скидку.&lt;/p&gt;" style="edgeLabel;html=1;align=center;verticalAlign=middle;resizable=0;points=[];fontSize=10;labelBackgroundColor=none;spacing=0;" vertex="1" connectable="0" parent="YIptKxTYCtXxLm6eZtxN-25">
          <mxGeometry x="-0.1537" y="-2" relative="1" as="geometry">
            <mxPoint x="-20" y="-18" as="offset" />
          </mxGeometry>
        </mxCell>
        <mxCell id="YIptKxTYCtXxLm6eZtxN-27" value="" style="endArrow=classicThin;dashed=1;html=1;dashPattern=8 8;strokeWidth=2;rounded=0;endFill=1;" edge="1" parent="1">
          <mxGeometry width="50" height="50" relative="1" as="geometry">
            <mxPoint x="340" y="560" as="sourcePoint" />
            <mxPoint x="150" y="560" as="targetPoint" />
          </mxGeometry>
        </mxCell>
        <mxCell id="YIptKxTYCtXxLm6eZtxN-28" value="&lt;p data-pm-slice=&quot;1 1 [&amp;quot;ordered_list&amp;quot;,{&amp;quot;spread&amp;quot;:true,&amp;quot;startingNumber&amp;quot;:1,&amp;quot;start&amp;quot;:687,&amp;quot;end&amp;quot;:1342},&amp;quot;regular_list_item&amp;quot;,{&amp;quot;start&amp;quot;:1112,&amp;quot;end&amp;quot;:1342},&amp;quot;list&amp;quot;,{&amp;quot;spread&amp;quot;:false,&amp;quot;start&amp;quot;:1137,&amp;quot;end&amp;quot;:1342},&amp;quot;regular_list_item&amp;quot;,{&amp;quot;start&amp;quot;:1299,&amp;quot;end&amp;quot;:1342}]&quot;&gt;выдаёт квитанцию.&lt;/p&gt;" style="edgeLabel;html=1;align=center;verticalAlign=middle;resizable=0;points=[];fontSize=10;labelBackgroundColor=none;spacing=0;" vertex="1" connectable="0" parent="YIptKxTYCtXxLm6eZtxN-27">
          <mxGeometry x="-0.1537" y="-2" relative="1" as="geometry">
            <mxPoint x="-20" y="-18" as="offset" />
          </mxGeometry>
        </mxCell>
        <mxCell id="YIptKxTYCtXxLm6eZtxN-29" value="&lt;p data-pm-slice=&quot;1 1 [&amp;quot;ordered_list&amp;quot;,{&amp;quot;spread&amp;quot;:false,&amp;quot;startingNumber&amp;quot;:1,&amp;quot;start&amp;quot;:686,&amp;quot;end&amp;quot;:1026},&amp;quot;regular_list_item&amp;quot;,{&amp;quot;start&amp;quot;:686,&amp;quot;end&amp;quot;:805}]&quot;&gt;&lt;br&gt;&lt;/p&gt;" style="rounded=0;whiteSpace=wrap;html=1;" vertex="1" parent="1">
          <mxGeometry x="335" y="280" width="10" height="120" as="geometry" />
        </mxCell>
        <mxCell id="YIptKxTYCtXxLm6eZtxN-31" value="&lt;p data-pm-slice=&quot;1 1 [&amp;quot;ordered_list&amp;quot;,{&amp;quot;spread&amp;quot;:false,&amp;quot;startingNumber&amp;quot;:1,&amp;quot;start&amp;quot;:686,&amp;quot;end&amp;quot;:1026},&amp;quot;regular_list_item&amp;quot;,{&amp;quot;start&amp;quot;:686,&amp;quot;end&amp;quot;:805}]&quot;&gt;&lt;br&gt;&lt;/p&gt;" style="rounded=0;whiteSpace=wrap;html=1;" vertex="1" parent="1">
          <mxGeometry x="525" y="320" width="10" height="40" as="geometry" />
        </mxCell>
        <mxCell id="YIptKxTYCtXxLm6eZtxN-32" value="&lt;p data-pm-slice=&quot;1 1 [&amp;quot;ordered_list&amp;quot;,{&amp;quot;spread&amp;quot;:false,&amp;quot;startingNumber&amp;quot;:1,&amp;quot;start&amp;quot;:686,&amp;quot;end&amp;quot;:1026},&amp;quot;regular_list_item&amp;quot;,{&amp;quot;start&amp;quot;:686,&amp;quot;end&amp;quot;:805}]&quot;&gt;&lt;br&gt;&lt;/p&gt;" style="rounded=0;whiteSpace=wrap;html=1;" vertex="1" parent="1">
          <mxGeometry x="525" y="480" width="10" height="40" as="geometry" />
        </mxCell>
        <mxCell id="YIptKxTYCtXxLm6eZtxN-33" value="&lt;p data-pm-slice=&quot;1 1 [&amp;quot;ordered_list&amp;quot;,{&amp;quot;spread&amp;quot;:false,&amp;quot;startingNumber&amp;quot;:1,&amp;quot;start&amp;quot;:686,&amp;quot;end&amp;quot;:1026},&amp;quot;regular_list_item&amp;quot;,{&amp;quot;start&amp;quot;:686,&amp;quot;end&amp;quot;:805}]&quot;&gt;&lt;br&gt;&lt;/p&gt;" style="rounded=0;whiteSpace=wrap;html=1;" vertex="1" parent="1">
          <mxGeometry x="335" y="440" width="10" height="120" as="geometry" />
        </mxCell>
      </root>
    </mxGraphModel>
  </diagram>
</mxfile>
